<?xml version="1.0" encoding="UTF-8"?>
<svg id="Layer_2" data-name="Layer 2" xmlns="http://www.w3.org/2000/svg" viewBox="0 0 510.2362205 509.9681639">
  <defs>
    <style>
      .cls-1 {
        fill: #fff;
      }
    </style>
  </defs>
  <path d="M188.2217089,0c-31.3703121,0-53.8925476,9.3842716-75.8785062,31.3703121L31.3703121,112.3432027C9.3842716,134.3292431,0,156.8514786,0,195.4610369v314.507127h322.0145116c31.3703121,0,53.8924658-9.3842716,75.8785062-31.3703121l80.9728906-80.9728906c21.9860405-21.9860405,31.3703121-44.5081941,31.3703121-75.8785062V0H188.2217089Z"/>
  <rect class="cls-1" x="95.6692913" y="93.2926848" width="319.1657762" height="323.382876"/>
  <path d="M129.3669595,152.9337706c-3.8923712,0-7.3319839-.8649714-10.305323-2.6016717v-4.6221908c3.5747645,2.054307,6.8724679,3.0814605,9.8795949,3.0814605,2.4462472,0,4.3654024-.5473647,5.7642233-1.6488517,1.3988209-1.0947294,2.0948525-2.5813989,2.0948525-4.4600086,0-1.6285789-.6216982-2.9530663-1.8583369-3.9802198-1.2366388-1.0271535-3.4666431-2.054307-6.690013-3.0814605-3.0476726-1.0271535-5.2574041-2.317853-6.6359523-3.878856-1.3853057-1.5542454-2.0745798-3.5544917-2.0745798-6.0007389,0-1.9799735.5068192-3.7234315,1.5136999-5.2303738,1.0068807-1.5001847,2.4259744-2.6827628,4.2505234-3.5274614,1.824549-.8514562,3.9194015-1.2771843,6.2913152-1.2771843,3.0476726,0,5.6628595.6757589,7.8590758,2.0205191v4.4600086c-2.4800351-1.561003-5.1357675-2.3381257-7.9671973-2.3381257-2.1962164,0-3.9396743.493304-5.2303738,1.4866695-1.2906995.9933656-1.939428,2.3583985-1.939428,4.0883413,0,1.594791.5676375,2.892248,1.7029124,3.9058864,1.1285173,1.0068807,3.0814605,1.9191552,5.8385568,2.7368235,3.3990672,1.0271535,5.8858599,2.3719137,7.4603781,4.0342805,1.5745182,1.6623669,2.3651561,3.7707346,2.3651561,6.3183456,0,2.1218829-.5135768,3.9734622-1.5407303,5.5479805-1.0271535,1.5745182-2.4597623,2.7976418-4.2978265,3.6626132-1.8448218.871729-4.0004926,1.3042146-6.4805277,1.3042146ZM156.0797083,152.7715885c-2.5138231,0-4.4464935-.7027892-5.7912537-2.1218829-1.3447602-1.4123361-2.0137615-3.5409766-2.0137615-6.3724063v-15.7181517h-4.4127055v-3.6626132h4.4127055v-6.9603165h4.6694939v6.9603165h6.6359523v3.6626132h-6.6359523v15.6100303c0,1.4190937.2770611,2.5611262.8244258,3.4260976.5473647.871729,1.4258512,1.3042146,2.6287021,1.3042146.8852441,0,1.6623669-.1081214,2.3381257-.3176067.6690013-.2162428,1.2366388-.4797888,1.6961548-.7973955v3.8180377c-.459516.3243643-1.067699.5946678-1.8313066.8244258s-1.6015486.344637-2.5205806.344637ZM172.487134,152.9337706c-2.6219445,0-4.7303122-.723062-6.3183456-2.1759436-1.594791-1.4528816-2.3921865-3.3652793-2.3921865-5.7371929,0-3.0476726,1.2501539-5.3925559,3.7437042-7.03465,2.4935503-1.6488517,6.0953452-2.4732775,10.8053846-2.4732775.7095468,0,1.4731544.0202728,2.284065.0540607-.0675759-4.9533126-2.2502771-7.4333477-6.5278308-7.4333477-3.1895819,0-5.8791023.9933656-8.0753187,2.9733391v-4.1964627c.9933656-.8109107,2.2367619-1.4663968,3.7437042-1.9664584,1.5069423-.493304,3.0206422-.7433348,4.5410997-.7433348,3.5071886,0,6.196709.9798504,8.0753187,2.926036,1.8718521,1.9461856,2.811157,4.7573426,2.811157,8.4402285v16.6777293h-3.9802198l-.2703036-3.61531c-.8446986,1.3515178-2.0137615,2.398944-3.500431,3.1625516-1.4866695.7636075-3.1355212,1.1420325-4.9397975,1.1420325ZM180.6097558,139.0198951c-.8109107-.0337879-1.6285789-.0540607-2.4394896-.0540607-3.2233699,0-5.6763746.4797888-7.3590143,1.4326088-1.6826396.9595776-2.5205806,2.3381257-2.5205806,4.142402,0,1.4528816.4865464,2.6219445,1.4596392,3.5071886s2.2367619,1.3244874,3.7977649,1.3244874c1.3109722,0,2.4935503-.3176067,3.5612493-.95282,1.0609415-.6352134,1.9056401-1.4934271,2.547611-2.5746414.6352134-1.0812142.95282-2.2570347.95282-3.534219v-3.2909458ZM191.6584136,152.2444965v-27.3479621h4.0883413l.3176067,4.0883413c.6014254-1.3853057,1.4866695-2.5003079,2.6557324-3.3450065,1.1690629-.8514562,2.4462472-1.2771843,3.8247953-1.2771843.9190321,0,1.7704883.1959701,2.547611.5811526v4.2505234c-.6757589-.3851826-1.5407303-.5811526-2.6016717-.5811526-1.8380642,0-3.3314913.7500924-4.4600086,2.2570347-1.1352749,1.5001847-1.7029124,3.4936734-1.7029124,5.9737086v15.400545h-4.6694939ZM220.2768024,152.7715885c-2.5138231,0-4.4397359-.7027892-5.7844961-2.1218829-1.3515178-1.4123361-2.0205191-3.5409766-2.0205191-6.3724063v-15.7181517h-4.4059479v-3.6626132h4.4059479v-6.9603165h4.6762515v6.9603165h6.6359523v3.6626132h-6.6359523v15.6100303c0,1.4190937.2703036,2.5611262.8176683,3.4260976.5541223.871729,1.4258512,1.3042146,2.6287021,1.3042146.8852441,0,1.6691244-.1081214,2.3381257-.3176067.6757589-.2162428,1.2366388-.4797888,1.7029124-.7973955v3.8180377c-.4662736.3243643-1.0744566.5946678-1.8313066.8244258-.7636075.229758-1.6083061.344637-2.5273382.344637ZM238.758808,152.9337706c-2.8314297,0-5.0817068-.9798504-6.7440737-2.9463087-1.6623669-1.9664584-2.4935503-4.6154332-2.4935503-7.9401669v-17.1507605h4.6694939v16.4614865c0,2.3719137.5270919,4.2370082,1.5677606,5.6020412,1.0474263,1.3650329,2.5273382,2.0407918,4.4329783,2.0407918,1.9529432,0,3.5274614-.6960317,4.7303122-2.0948525s1.8042762-3.2301275,1.8042762-5.4939197v-16.5155472h4.6762515v27.3479621h-4.0883413l-.2703036-3.5612493c-1.8380642,2.8314297-4.601918,4.2505234-8.2848039,4.2505234ZM258.0855121,162.0700307v-37.1734963h4.0883413l.3243643,4.2978265c.8446986-1.5542454,2.0205191-2.777369,3.5274614-3.6626132,1.5069423-.8852441,3.2166123-1.331245,5.1290099-1.331245,2.2300043,0,4.1761899.5879102,5.8385568,1.7569731,1.6623669,1.1690629,2.9530663,2.811157,3.878856,4.9397975.9190321,2.1218829,1.3785481,4.635706,1.3785481,7.5414692,0,2.9327936-.4797888,5.4939197-1.4326088,7.6698634-.9595776,2.1759436-2.284065,3.8585832-3.9869774,5.0479189-1.6961548,1.1825781-3.6964011,1.7772459-6.0007389,1.7772459-1.7704883,0-3.3314913-.3919402-4.6965243-1.1690629s-2.4867927-1.8583369-3.3720368-3.2368851v13.5422081h-4.6762515ZM269.9856261,149.0008539c2.2975802,0,4.1288868-.9325473,5.4939197-2.811157s2.0475494-4.4262207,2.0475494-7.6495906c0-3.2166123-.6825165-5.7574657-2.0475494-7.6158026-1.3650329-1.8650945-3.1963395-2.7908842-5.4939197-2.7908842-2.2705499,0-4.0680685.9393049-5.3925559,2.811157-1.3244874,1.8786097-1.9934887,4.3924328-1.9934887,7.5414692,0,3.1895819.6757589,5.7371929,2.0205191,7.6495906,1.3447602,1.9123976,3.1355212,2.8652177,5.3655256,2.8652177Z"/>
  <path d="M210.777452,342.8787675h11.9643111v50.5431747h-31.9853575c-2.9302595,0-5.1281652-.9766828-7.3252263-2.9302595l-8.0584247-8.05758c-2.1970611-2.1974834-3.1735327-4.3949669-3.1735327-7.569133v-31.9862022h11.7201932v39.3112173h26.8580369v-39.3112173ZM130.9340055,354.1107248h33.2076364v-11.2317462h-45.1719474v31.985991c0,3.1743774.9773163,5.3718608,3.1743774,7.5693442l8.05758,8.05758c1.9537879,1.9533655,4.150849,2.9300483,7.3252263,2.9300483h28.0794711v-11.2317462h-34.6723437v-28.0794711ZM281.3427289,374.8649696v2.1974834c0,1.9535767-.9764716,3.4184953-2.1970611,4.6392959l-8.3025426,8.546027c-2.1970611,2.1974834-4.3949669,3.1741662-7.5693442,3.1741662h-31.9853575l-.4882358-31.0095194c0-3.9067311.9764716-6.1042145,3.1735327-8.3016979l8.05758-8.05758c2.1979058-2.1974834,4.3958116-3.1741662,7.5693442-3.1741662h30.033259v12.6968759c0,3.1741662-1.2214342,5.3714384-3.6626132,7.569133l-6.5734446,6.1040033h6.0852088c4.8832026,0,5.8596742,1.7092476,5.8596742,5.6159787ZM269.3784179,382.1899848v-12.9232552l-.2441179.2265904h-11.7201932v-1.7092476l13.6731364-12.6968759v-.9766828h-28.0794711v28.0794711h26.3706458ZM306.4919406,342.6348607h31.9862022v31.9862022c0,3.1741662-.9764716,5.3714384-3.1735327,7.569133l-8.0584247,8.05758c-2.1970611,2.1974834-4.3949669,3.1741662-7.5684995,3.1741662h-31.9862022v-31.2536373c0-3.9067311.9764716-6.1042145,3.1735327-8.3016979l8.0584247-8.05758c2.1970611-2.1974834,4.3949669-3.1741662,7.5684995-3.1741662ZM326.2697138,354.1107248h-26.8580369v28.0794711h26.8580369v-28.0794711ZM389.2656465,346.2972627c-.4882358-1.9533655-1.4647074-3.1741662-3.6626132-3.6626132-3.4184953-.9766828-8.7899337-1.4649186-14.4054901-1.4649186-5.616401,0-10.7437216.488447-14.4063347,1.4649186-2.1979058.488447-3.1743774,1.7092476-3.6626132,3.6626132-.7323537,3.4182841-1.4647074,8.7899337-1.4647074,14.4059124s.4882358,10.9876283,1.4647074,14.4061236c.4882358,1.9533655,1.4647074,3.1741662,3.6626132,3.6626132,3.4184953.9766828,8.7899337,1.4649186,14.4063347,1.4649186,5.6155563,0,10.7428769-.488447,14.4054901-1.4649186,2.1979058-.488447,3.1743774-1.7092476,3.6626132-3.6626132.7323537-3.4184953,1.4647074-8.7899337,1.4647074-14.4061236-.2432732-5.8600966-.7323537-10.9876283-1.4647074-14.4059124Z"/>
  <path d="M118.2649775,210.1757491v-3.6107159c3.3269469-3.2574724,6.0618929-6.0188383,8.2048381-8.2850762,2.1414774-2.2652594,3.8142467-4.2125019,5.018308-5.8417273,1.2030827-1.6282469,2.0446046-3.0803614,2.5226085-4.3543864.478004-1.2750035.7167613-2.5490284.7167613-3.8240319,0-2.0176954-.6286951-3.6195225-1.8851068-4.8054812-1.2573902-1.1859587-2.9301595-1.7789381-5.0187972-1.7789381-3.0451349,0-5.8065008,1.0440742-8.2840977,3.1332011v-4.3015466c1.1326297-.9207815,2.4775969-1.6282469,4.0358801-2.1243534,1.5573047-.4961065,3.2036541-.7436705,4.9390483-.7436705,2.1943172,0,4.115629.424675,5.7619784,1.274025,1.6458602.8503285,2.9286918,2.0362872,3.8499625,3.5588546.9202922,1.5225675,1.380683,3.2917204,1.380683,5.3103943,0,1.4521145-.2387574,2.8856372-.7167613,4.3015466s-1.2838101,2.9658753-2.4164398,4.646962c-1.1336082,1.6820652-2.681617,3.6028878-4.646962,5.7614892-1.9648557,2.1605584-4.4341352,4.7095869-7.4078386,7.6470852h16.037841v4.0363694h-22.0919058ZM156.2357158,210.8665799c-4.0011429,0-7.1079241-1.6282469-9.3203438-4.8857193-2.2129089-3.2574724-3.3191188-7.8241962-3.3191188-13.7021286,0-5.9121803,1.0974032-10.4965174,3.2926989-13.7539898,2.1948064-3.2574724,5.2922918-4.8857193,9.2934347-4.8857193,4.0006536,0,7.1074349,1.6194403,9.3203438,4.8592995,2.2119304,3.2388806,3.3191188,7.8153896,3.3191188,13.7275699,0,5.8769538-1.0978925,10.4534628-3.2926989,13.7275699-2.1952957,3.2750856-5.2932703,4.9131177-9.2934347,4.9131177ZM156.2357158,206.8302105c2.4775969,0,4.3984195-1.2750035,5.7619784-3.8240319,1.3625804-2.5490284,2.0446046-6.142131,2.0446046-10.7802864,0-4.6019503-.6639216-8.1784182-1.9912756-10.7274466-1.3278432-2.5490284-3.2843815-3.8230534-5.8686364-3.8230534-2.4785754,0-4.399398,1.274025-5.7619784,3.8230534-1.3630697,2.5490284-2.0446046,6.1431096-2.0446046,10.7802864,0,4.6029289.672239,8.1784182,2.0181847,10.7274466,1.3449672,2.5490284,3.2926989,3.8240319,5.8417273,3.8240319ZM171.3180381,210.1757491v-3.6107159c3.3269469-3.2574724,6.0618929-6.0188383,8.2048381-8.2850762,2.1414774-2.2652594,3.8142467-4.2125019,5.018308-5.8417273,1.2030827-1.6282469,2.0446046-3.0803614,2.5226085-4.3543864.478004-1.2750035.7167613-2.5490284.7167613-3.8240319,0-2.0176954-.6286951-3.6195225-1.8851068-4.8054812-1.2573902-1.1859587-2.9301595-1.7789381-5.0187972-1.7789381-3.0451349,0-5.8065008,1.0440742-8.2840977,3.1332011v-4.3015466c1.1326297-.9207815,2.4775969-1.6282469,4.0358801-2.1243534,1.5573047-.4961065,3.2036541-.7436705,4.9390483-.7436705,2.1943172,0,4.115629.424675,5.7619784,1.274025,1.6458602.8503285,2.9286918,2.0362872,3.8499625,3.5588546.9202922,1.5225675,1.380683,3.2917204,1.380683,5.3103943,0,1.4521145-.2387574,2.8856372-.7167613,4.3015466s-1.2838101,2.9658753-2.4164398,4.646962c-1.1336082,1.6820652-2.681617,3.6028878-4.646962,5.7614892-1.9648557,2.1605584-4.4341352,4.7095869-7.4078386,7.6470852h16.037841v4.0363694h-22.0919058ZM209.341616,210.8665799c-3.9297114,0-6.9396198-1.3982962-9.0277682-4.1958671-2.0896162-2.7965924-3.1336904-6.8153485-3.1336904-12.0552899,0-6.7615303,1.2657076-11.9486319,3.7971228-15.5593477,2.5309259-3.6116944,6.1685509-5.4170523,10.9133643-5.4170523,2.5490284,0,4.7614481.5841727,6.6382375,1.7525182v4.1420489c-2.1243534-1.3092514-4.3196491-1.9648557-6.5849085-1.9648557-3.2926989,0-5.8153074,1.2661968-7.5678256,3.7966335-1.7525182,2.5323937-2.664493,6.1695294-2.734946,10.9133643.8498392-1.4863624,2.0353087-2.6459013,3.5583654-3.477638,1.5215889-.8317367,3.2393699-1.2485836,5.1508966-1.2485836,2.1243534,0,3.9742337.4784932,5.5496409,1.4335227,1.5749179.956008,2.805399,2.2838512,3.690954,3.9835296.8845765,1.6996784,1.3278432,3.6821474,1.3278432,5.9474068,0,2.3366909-.4965957,4.399398-1.487341,6.1871427-.9912345,1.7877447-2.3547934,3.195826-4.0887199,4.222287-1.7353942,1.026461-3.7359656,1.5401807-6.0012251,1.5401807ZM209.394945,207.1482275c2.0881484,0,3.7971228-.742692,5.1244767-2.2300329,1.3278432-1.487341,1.9917648-3.4159916,1.9917648-5.7888876,0-2.4071439-.6375017-4.3279665-1.9120159-5.7614892s-2.9741927-2.1507733-5.0980568-2.1507733c-2.1243534,0-3.8685543.7348639-5.2311347,2.203613-1.3630697,1.4697277-2.0446046,3.3553238-2.0446046,5.6558097,0,2.3728959.672239,4.3113317,2.0181847,5.8153074,1.3449672,1.5049542,3.0617696,2.2564528,5.1513858,2.2564528Z"/>
</svg>