<?xml version="1.0" encoding="UTF-8" standalone="no"?>
<svg
   xmlns:dc="http://purl.org/dc/elements/1.1/"
   xmlns:cc="http://creativecommons.org/ns#"
   xmlns:rdf="http://www.w3.org/1999/02/22-rdf-syntax-ns#"
   xmlns:svg="http://www.w3.org/2000/svg"
   xmlns="http://www.w3.org/2000/svg"
   xmlns:sodipodi="http://sodipodi.sourceforge.net/DTD/sodipodi-0.dtd"
   xmlns:inkscape="http://www.inkscape.org/namespaces/inkscape"
   version="1.0"
   width="100"
   height="80"
   viewBox="0 0 80 64"
   preserveAspectRatio="xMidYMid meet"
   id="svg2"
   inkscape:version="0.91 r13725"
   sodipodi:docname="gt (1).svg">
  <title
     id="title4158">Shark Tank logo</title>
  <defs
     id="defs30" />
  <sodipodi:namedview
     pagecolor="#ffffff"
     bordercolor="#666666"
     borderopacity="1"
     objecttolerance="10"
     gridtolerance="10"
     guidetolerance="10"
     inkscape:pageopacity="0"
     inkscape:pageshadow="2"
     inkscape:window-width="1366"
     inkscape:window-height="705"
     id="namedview28"
     showgrid="false"
     inkscape:showpageshadow="false"
     units="px"
     inkscape:zoom="1"
     inkscape:cx="72.520647"
     inkscape:cy="-111.53178"
     inkscape:window-x="-8"
     inkscape:window-y="-8"
     inkscape:window-maximized="1"
     inkscape:current-layer="svg2" />
  <metadata
     id="metadata4">
Created by potrace 1.15, written by Peter Selinger 2001-2017
<rdf:RDF>
  <cc:Work
     rdf:about="">
    <dc:format>image/svg+xml</dc:format>
    <dc:type
       rdf:resource="http://purl.org/dc/dcmitype/StillImage" />
    <dc:title>Shark Tank logo</dc:title>
    <cc:license
       rdf:resource="http://scripts.sil.org/OFL" />
  </cc:Work>
  <cc:License
     rdf:about="http://scripts.sil.org/OFL">
    <cc:permits
       rdf:resource="http://scripts.sil.org/pub/OFL/Reproduction" />
    <cc:permits
       rdf:resource="http://scripts.sil.org/pub/OFL/Distribution" />
    <cc:permits
       rdf:resource="http://scripts.sil.org/pub/OFL/Embedding" />
    <cc:permits
       rdf:resource="http://scripts.sil.org/pub/OFL/DerivativeWorks" />
    <cc:requires
       rdf:resource="http://scripts.sil.org/pub/OFL/Notice" />
    <cc:requires
       rdf:resource="http://scripts.sil.org/pub/OFL/Attribution" />
    <cc:requires
       rdf:resource="http://scripts.sil.org/pub/OFL/ShareAlike" />
    <cc:requires
       rdf:resource="http://scripts.sil.org/pub/OFL/DerivativeRenaming" />
    <cc:requires
       rdf:resource="http://scripts.sil.org/pub/OFL/BundlingWhenSelling" />
  </cc:License>
</rdf:RDF>
</metadata>
  <g
     transform="matrix(0.00753494,0,0,-0.00726372,-26.364436,65.025703)"
     id="g6"
     style="fill:#37abc8;stroke:none">
    <path
       d="m 4290,8834 c -282,-19 -450,-76 -526,-181 -116,-158 -144,-372 -126,-968 11,-391 19,-452 79,-575 55,-114 230,-253 523,-417 69,-38 176,-98 237,-132 62,-35 124,-76 137,-92 43,-50 48,-108 44,-449 -5,-337 -9,-369 -56,-421 -26,-28 -28,-29 -49,-14 -12,9 -30,39 -40,68 -14,45 -17,107 -21,445 l -3,392 -425,0 -424,0 0,-508 c 0,-606 10,-711 78,-850 36,-75 143,-174 218,-201 146,-55 400,-77 774,-67 383,10 524,44 642,154 57,54 99,123 126,212 39,129 44,225 40,830 -4,549 -5,578 -25,652 -12,42 -33,98 -46,125 -69,135 -251,275 -557,428 -235,117 -315,176 -365,266 l -30,54 0,210 c 0,171 3,220 17,266 28,91 71,111 103,48 35,-67 45,-149 45,-391 l 0,-238 431,0 431,0 -5,428 c -4,331 -8,443 -20,497 -57,265 -174,373 -447,415 -72,11 -648,21 -760,14 z"
       id="path10"
       inkscape:connector-curvature="0"
       style="fill:#37abc8" />
    <path
       d="m 8381,8790 c -401,-32 -545,-169 -581,-555 -6,-70 -10,-708 -10,-1747 l 0,-1638 430,0 430,0 2,378 3,377 68,3 c 42,2 74,-2 83,-9 12,-9 14,-75 14,-380 l 0,-369 428,2 427,3 3,1495 c 1,905 -1,1582 -8,1715 -14,314 -47,442 -142,550 -81,92 -170,135 -338,161 -116,18 -642,27 -809,14 z m 378,-714 c 15,-8 35,-32 44,-53 16,-35 17,-104 15,-873 l -3,-835 -80,0 -80,0 -8,155 c -4,85 -6,466 -5,845 3,660 4,691 22,722 16,25 43,47 64,52 2,1 15,-5 31,-13 z"
       id="path12"
       inkscape:connector-curvature="0"
       style="fill:#37abc8" />
    <path
       d="m 5725,8758 c -3,-13 -4,-896 -3,-1963 l 3,-1940 422,-3 423,-2 2,1012 3,1013 73,3 c 46,2 79,-2 88,-9 12,-10 14,-164 14,-1015 l 0,-1004 430,0 430,0 0,1965 0,1965 -430,0 -430,0 -2,-597 -3,-598 -73,-3 c -46,-2 -79,2 -88,9 -12,10 -14,106 -14,600 l 0,589 -420,0 -420,0 -5,-22 z"
       id="path14"
       inkscape:connector-curvature="0"
       style="fill:#37abc8" />
    <path
       d="m 9880,6815 0,-1965 430,0 430,0 2,878 3,877 53,-1 c 29,-1 59,-7 67,-14 37,-31 39,-64 42,-912 l 4,-828 430,0 429,0 0,788 c 0,451 -5,828 -10,882 -11,106 -40,222 -70,280 -25,48 -120,152 -166,180 -39,25 -43,36 -14,45 11,4 47,31 79,60 75,70 125,167 152,295 26,125 37,529 20,778 -18,267 -55,379 -155,469 -65,58 -127,89 -229,113 -147,34 -273,40 -893,40 l -604,0 0,-1965 z m 974,1254 c 46,-21 50,-47 54,-313 4,-294 -1,-323 -69,-350 -47,-19 -71,-20 -87,-4 -14,14 -18,669 -4,682 9,9 72,0 106,-15 z"
       id="path16"
       inkscape:connector-curvature="0"
       style="fill:#37abc8" />
    <path
       d="m 11980,6815 0,-1965 425,0 425,0 0,837 c 0,460 4,833 8,827 5,-5 23,-128 41,-274 18,-146 43,-326 56,-400 115,-676 168,-976 172,-982 2,-5 193,-8 424,-8 360,0 419,2 419,15 0,8 -115,486 -255,1062 -140,576 -263,1082 -273,1125 l -19,76 28,94 c 15,51 87,298 159,548 73,250 165,570 206,710 41,140 74,264 74,277 l 0,23 -419,0 -419,0 -17,-92 c -9,-51 -38,-203 -65,-338 -27,-135 -61,-342 -75,-460 -15,-118 -31,-219 -36,-224 -5,-6 -9,220 -9,552 l 0,562 -425,0 -425,0 0,-1965 z"
       id="path18"
       inkscape:connector-curvature="0"
       style="fill:#37abc8" />
    <path
       d="m 6726,4629 c -54,-5 -144,-18 -199,-30 -293,-59 -424,-184 -489,-465 l -22,-99 -3,-1903 -3,-1902 565,0 565,0 2,423 3,422 104,3 c 67,2 108,-1 117,-9 12,-9 14,-83 14,-425 l 0,-414 565,0 565,0 0,1773 c 0,1138 -4,1821 -11,1910 -11,153 -44,302 -86,386 -41,84 -152,194 -237,236 -171,83 -286,97 -871,100 -264,2 -524,-1 -579,-6 z m 584,-794 c 16,-9 38,-30 47,-48 17,-30 18,-92 18,-972 l 0,-940 -104,-3 c -61,-2 -108,1 -116,8 -10,8 -14,202 -20,898 -4,488 -4,908 0,935 16,108 96,163 175,122 z"
       id="path20"
       inkscape:connector-curvature="0"
       style="fill:#37abc8" />
    <path
       d="m 3650,4240 0,-380 248,0 c 180,0 251,-3 260,-12 9,-9 12,-426 12,-1815 l 0,-1803 570,0 570,0 2,1812 3,1813 258,3 257,2 0,380 0,380 -1090,0 -1090,0 0,-380 z"
       id="path22"
       inkscape:connector-curvature="0"
       style="fill:#37abc8" />
    <path
       d="m 8710,2425 0,-2195 480,0 480,0 0,967 c 0,561 4,963 9,957 5,-5 21,-94 35,-199 46,-330 77,-505 117,-680 22,-93 83,-363 134,-598 52,-235 97,-432 100,-438 4,-5 230,-9 581,-9 l 574,0 0,2195 0,2195 -500,0 -500,0 0,-989 c 0,-545 -4,-992 -8,-995 -5,-3 -17,57 -26,132 -40,304 -87,577 -131,767 -44,192 -235,1068 -235,1079 0,4 -250,6 -555,6 l -555,0 0,-2195 z"
       id="path24"
       inkscape:connector-curvature="0"
       style="fill:#37abc8" />
    <path
       d="m 11440,2425 0,-2195 565,0 565,0 0,977 c 0,537 4,973 8,967 5,-5 30,-157 57,-339 26,-181 76,-472 112,-645 98,-483 193,-953 193,-957 0,-2 252,-3 560,-3 457,0 560,2 560,13 0,14 -12,58 -56,206 l -25,83 -82,-2 c -128,-5 -157,-2 -164,16 -3,9 5,27 22,44 17,18 32,50 41,87 24,103 39,95 -168,92 -185,-2 -228,4 -228,35 0,18 146,145 176,152 13,3 24,12 24,18 0,12 -87,30 -274,57 -37,6 -80,15 -94,20 -25,10 -24,10 39,57 35,25 107,69 159,97 119,63 125,78 33,95 -76,14 -307,65 -367,81 l -38,10 28,31 c 16,16 49,41 74,56 96,56 160,103 160,120 0,14 -38,30 -176,76 -115,38 -173,61 -166,68 5,5 85,58 178,116 93,59 170,114 172,123 2,13 -10,18 -65,24 -100,11 -272,41 -281,49 -4,4 5,17 19,29 206,173 220,188 187,214 -10,8 -171,75 -285,120 -7,3 -13,9 -13,13 0,10 126,52 240,80 47,11 120,33 163,47 74,25 77,28 77,57 0,26 -18,49 -110,141 l -110,110 130,70 c 116,62 131,72 141,104 13,40 14,38 -80,96 l -54,33 99,32 c 54,17 100,33 101,34 5,5 473,1367 473,1376 0,6 -209,10 -558,10 l -558,0 -38,-172 c -21,-95 -56,-245 -78,-333 -51,-206 -52,-211 -99,-530 -22,-148 -44,-274 -49,-279 -7,-7 -10,227 -10,652 l 0,662 -565,0 -565,0 0,-2195 z"
       id="path26"
       inkscape:connector-curvature="0"
       style="fill:#37abc8" />
  </g>
</svg>
