<?xml version="1.0" encoding="UTF-8"?>
<svg xmlns="http://www.w3.org/2000/svg" viewBox="280 290 1290 290" preserveAspectRatio="xMidYMid meet">
  <defs>
    <style>
      .cls-1 { fill: #f2f2f2; }
      .cls-2 { fill: #29abe2; }
      .cls-4 { fill: currentColor; }
    </style>
  </defs>
  <!-- Background removed. Cyan icon + circle preserved.
       Text fill uses currentColor so it adapts to surrounding theme. -->
  <path class="cls-4" d="m535.53,559.97v-244.91h30.61v87.76c0,1.7,1.02,2.38,2.38,2.38,1.7,0,2.72-1.02,3.74-2.38,13.61-17.35,33.67-24.83,58.51-24.83,42.86,0,87.08,28.91,87.08,93.54s-44.22,93.54-87.08,93.54c-26.19,0-46.94-9.18-60.55-27.89-1.36-2.04-2.38-2.72-3.74-2.72-1.7,0-2.72.68-3.4,2.72l-7.14,22.79h-20.41Zm90.14-22.11c35.72,0,61.23-23.81,61.23-66.33s-25.51-66.33-61.23-66.33-61.23,23.81-61.23,66.33,25.51,66.33,61.23,66.33Z"/>
  <path class="cls-4" d="m792.68,456.56l64.63-2.72v-9.52c0-25.17-12.93-39.8-44.22-39.8s-43.88,14.63-44.56,32.99h-31.63c1.36-33.67,25.17-59.53,76.19-59.53s73.81,25.85,73.81,68.03v113.95h-29.25v-18.71c0-1.36-.68-2.04-2.04-2.04s-2.04.34-3.4,2.04c-12.59,16.84-31.29,23.81-54.42,23.81-44.22,0-69.73-23.13-69.73-57.14,0-30.61,20.41-49.49,64.63-51.36Zm8.5,81.98c34.02,0,56.13-19.39,56.13-56.8v-2.04l-64.63,2.72c-23.81,1.02-34.01,10.21-34.01,25.51,0,18.71,15.31,30.61,42.52,30.61Z"/>
  <path class="cls-4" d="m919.35,413.79v-74.93h30.61v47.62h51.02v27.21h-51.02v117.35c0,1.7.34,2.72,1.36,3.74,1.02,1.02,2.04,1.36,3.74,1.36h45.92v27.21h-30.61c-34.53,0-51.02-16.5-51.02-51.02v-98.64"/>
  <path class="cls-4" d="m1191.67,503.84c-5.1,26.87-28.23,61.23-84.36,61.23s-89.8-35.72-89.8-93.54,34.7-93.54,89.12-93.54,84.36,35.72,84.36,85.04v17.01h-143.04c2.04,39.8,26.53,58.51,59.36,58.51s47.45-14.63,52.38-34.7h31.98Zm-142.87-49.32h111.57c-1.36-32.65-21.43-50-53.74-50-29.25,0-52.72,16.67-57.83,50Z"/>
  <path class="cls-4" d="m1376.71,490.23c-2.72,42.52-32.65,74.83-85.72,74.83s-90.82-33.33-90.82-93.54,37.76-93.54,90.82-93.54,82.32,32.32,84.36,69.73h-31.63c-3.06-24.83-18.71-42.52-52.72-42.52-35.72,0-59.87,23.81-59.87,66.33s24.15,66.33,59.87,66.33,51.7-19.73,54.09-47.62h31.63Z"/>
  <path class="cls-4" d="m1394.73,563.36v-244.91h30.61v87.42c0,1.7.68,2.38,2.38,2.38s2.38-1.02,3.74-2.72c11.22-14.97,29.25-24.15,55.11-24.15,44.22,0,71.43,25.51,71.43,71.43v110.55h-30.61v-105.45c0-32.32-17.01-49.32-47.62-49.32-34.02,0-54.42,20.41-54.42,62.93v91.84h-30.61Z"/>
  <circle class="cls-1" cx="353.46" cy="499.92" r="34.57"/>
  <path class="cls-2" d="m479.57,409.08c5.88,35.31,3.4,74.06-15.31,108.4-15.74,28.89-40.47,48.68-73.74,50.53-18.7,1.04-37.06-3.28-49.01-9.19-1.77-.88-4.25-2.73-4.02-3.99.4-2.11,3.24-1.74,5.12-1.45,40.66,6.28,68.51-26.03,65.94-68.58-2.38-39.45-22.45-73.28-40.24-108.85-.55-1.1,5.68-9.2,12.42-17.11,18.04-21.18,44.14-36.14,44.14-36.14,5.49-3.08,6.36-3.17,11.76,2.23,3.24,3.24,35.37,38.78,42.94,84.15Z"/>
</svg>
